#usda 1.0
(
    customLayerData = {
        dictionary cameraSettings = {
            dictionary Front = {
                double3 position = (5, 0, 0)
                double radius = 5
            }
            dictionary Perspective = {
                double3 position = (-7.974765138314824, 16.48562667003432, 2.3823221494440343)
                double3 target = (-17.10874405270529, 13.212587380153721, 1.690862959526624)
            }
            dictionary Right = {
                double3 position = (0, -5, 0)
                double radius = 5
            }
            dictionary Top = {
                double3 position = (0, 0, 5)
                double radius = 5
            }
            string boundCamera = "/OmniverseKit_Persp"
        }
        dictionary metricsAssembler = {
            dictionary "/World/Cardbox_A1" = {
            }
            dictionary "/World/Cardbox_A2" = {
            }
            dictionary "/World/Cardbox_A2_01" = {
            }
            dictionary "/World/Cardbox_A3" = {
            }
            dictionary "/World/Cardbox_B1" = {
            }
            dictionary "/World/Cardbox_B2" = {
            }
            dictionary "/World/Cardbox_B3" = {
            }
            dictionary "/World/Cardbox_B3_01" = {
            }
            dictionary "/World/Cardbox_B3_02" = {
            }
            dictionary "/World/Cardbox_B3_03" = {
            }
            dictionary "/World/Cardbox_B3_04" = {
            }
            dictionary "/World/Cardbox_B3_05" = {
            }
            dictionary "/World/Cardbox_B3_06" = {
            }
            dictionary "/World/Cardbox_B3_07" = {
            }
            dictionary "/World/Cardbox_B3_08" = {
            }
            dictionary "/World/Cardbox_B3_09" = {
            }
            dictionary "/World/Cardbox_B3_10" = {
            }
            dictionary "/World/Cardbox_B3_11" = {
            }
            dictionary "/World/Cardbox_B3_12" = {
            }
            dictionary "/World/Cardbox_B3_13" = {
            }
            dictionary "/World/Cardbox_B3_14" = {
            }
            dictionary "/World/Cardbox_B3_15" = {
            }
            dictionary "/World/Cardbox_C1" = {
            }
            dictionary "/World/Cardbox_C2" = {
            }
            dictionary "/World/Cardbox_D1" = {
            }
            dictionary "/World/Cardbox_D2" = {
            }
            dictionary "/World/Cardbox_D2_01" = {
            }
            dictionary "/World/CubeBox_A06_42cm_PR_NVD_01" = {
            }
            dictionary "/World/CubeBox_A06_42cm_PR_NVD_02" = {
            }
            dictionary "/World/CubeBox_A06_42cm_PR_NVD_03" = {
            }
            dictionary "/World/CubeBox_A06_42cm_PR_NVD_04" = {
            }
            dictionary "/World/CubeBox_A06_42cm_PR_NVD_05" = {
            }
            dictionary "/World/CubeBox_A06_42cm_PR_NVD_06" = {
            }
            dictionary "/World/CubeBox_A06_42cm_PR_NVD_07" = {
            }
            dictionary "/World/RackLarge_A3" = {
            }
            dictionary "/World/RackLarge_A8" = {
            }
            dictionary "/World/RackLarge_A9" = {
            }
            dictionary "/World/RackLarge_A9_01" = {
            }
            dictionary "/World/RackLong_A9" = {
            }
            dictionary "/World/RackLong_A9_01" = {
            }
            dictionary "/World/RackLong_A9_02" = {
            }
            dictionary "/World/RackLong_A9_03" = {
            }
            dictionary "/World/RackSmall_A1" = {
            }
            dictionary "/World/WoodenCrate_C1" = {
            }
            int version = 1
        }
        dictionary omni_layer = {
            string authoring_layer = "./warehouse_full_with_industrial_ap.usda"
        }
        double3 racerBsPhaseCenter = (-10.02891489217081, 14.888611215255622, 7.55)
        string racerBsPlacement = "user-adjusted position"
        string racerScenario = "warehouse_full"
        dictionary renderSettings = {
        }
    }
    defaultPrim = "World"
    metersPerUnit = 1
    subLayers = [
        @warehouse_full.usd@
    ]
    upAxis = "Z"
)

over "World"
{
    def Xform "IndustrialWifiAccessPoint" (
        prepend references = @../isaac_assets/industrial_wifi_ap/industrial_wifi_ap.usda@
    )
    {
        custom string experiment:role = "visible_and_rf_access_point"
        custom double3 radio:phaseCenter = (-10.02891489217081, 14.888611215255622, 7.55)
        quatf xformOp:orient = (1, 0, 0, 0)
        float3 xformOp:scale = (1, 1, 1)
        double3 xformOp:translate = (-10.02891489217081, 14.888611215255622, 8)
        uniform token[] xformOpOrder = ["xformOp:translate", "xformOp:orient", "xformOp:scale"]

        over "MetalRadioObstacleProxy" (
            active = false
        )
        {
        }
    }

    def "Cardbox_D2" (
        prepend payload = @https://omniverse-content-production.s3-us-west-2.amazonaws.com/Assets/ArchVis/Industrial/Containers/Cardboard/Cardbox_D2.usd@
    )
    {
        quatf xformOp:orient = (1, 0, 0, 0)
        float3 xformOp:scale = (1, 1, 1)
        double3 xformOp:scale:unitsResolve = (0.009999999776482582, 0.009999999776482582, 0.009999999776482582)
        double3 xformOp:translate = (-0.8733662820419301, 7.199203968048096, 3.4320476055145264)
        uniform token[] xformOpOrder = ["xformOp:translate", "xformOp:orient", "xformOp:scale", "xformOp:scale:unitsResolve"]

        over "Cardbox_D2" (
            active = false
        )
        {
        }
    }

    def "Cardbox_B2" (
        prepend payload = @https://omniverse-content-production.s3-us-west-2.amazonaws.com/Assets/ArchVis/Industrial/Containers/Cardboard/Cardbox_B2.usd@
    )
    {
        quatf xformOp:orient = (1, 0, 0, 0)
        float3 xformOp:scale = (1, 1, 1)
        double3 xformOp:scale:unitsResolve = (0.009999999776482582, 0.009999999776482582, 0.009999999776482582)
        double3 xformOp:translate = (-0.6804784536361694, 9.354417971159902, 3.3474996089935303)
        uniform token[] xformOpOrder = ["xformOp:translate", "xformOp:orient", "xformOp:scale", "xformOp:scale:unitsResolve"]
    }

    def "Cardbox_B1" (
        prepend payload = @https://omniverse-content-production.s3-us-west-2.amazonaws.com/Assets/ArchVis/Industrial/Containers/Cardboard/Cardbox_B1.usd@
    )
    {
        quatf xformOp:orient = (1, 0, 0, 0)
        float3 xformOp:scale = (1, 1, 1)
        double3 xformOp:scale:unitsResolve = (0.009999999776482582, 0.009999999776482582, 0.009999999776482582)
        double3 xformOp:translate = (-0.6331084206887418, 9.87358152557622, 3.293352127075195)
        uniform token[] xformOpOrder = ["xformOp:translate", "xformOp:orient", "xformOp:scale", "xformOp:scale:unitsResolve"]
    }

    def "Cardbox_B3" (
        prepend payload = @https://omniverse-content-production.s3-us-west-2.amazonaws.com/Assets/ArchVis/Industrial/Containers/Cardboard/Cardbox_B3.usd@
    )
    {
        quatf xformOp:orient = (1, 0, 0, 0)
        float3 xformOp:scale = (1, 1, 1)
        double3 xformOp:scale:unitsResolve = (0.009999999776482582, 0.009999999776482582, 0.009999999776482582)
        double3 xformOp:translate = (-0.6513720799046993, 10.407608069464517, 3.342686414718628)
        uniform token[] xformOpOrder = ["xformOp:translate", "xformOp:orient", "xformOp:scale", "xformOp:scale:unitsResolve"]
    }

    def "Cardbox_A3" (
        prepend payload = @https://omniverse-content-production.s3-us-west-2.amazonaws.com/Assets/ArchVis/Industrial/Containers/Cardboard/Cardbox_A3.usd@
    )
    {
        quatf xformOp:orient = (1, 0, 0, 0)
        float3 xformOp:scale = (1, 1, 1)
        double3 xformOp:scale:unitsResolve = (0.009999999776482582, 0.009999999776482582, 0.009999999776482582)
        double3 xformOp:translate = (-0.4549044072628021, 10.915446003061597, 3.33284592628479)
        uniform token[] xformOpOrder = ["xformOp:translate", "xformOp:orient", "xformOp:scale", "xformOp:scale:unitsResolve"]
    }

    def "Cardbox_A2" (
        prepend payload = @https://omniverse-content-production.s3-us-west-2.amazonaws.com/Assets/ArchVis/Industrial/Containers/Cardboard/Cardbox_A2.usd@
    )
    {
        quatf xformOp:orient = (1, 0, 0, 0)
        float3 xformOp:scale = (1, 1, 1)
        double3 xformOp:scale:unitsResolve = (0.009999999776482582, 0.009999999776482582, 0.009999999776482582)
        double3 xformOp:translate = (-0.48637792468070984, 11.420959322147244, 3.347499370574951)
        uniform token[] xformOpOrder = ["xformOp:translate", "xformOp:orient", "xformOp:scale", "xformOp:scale:unitsResolve"]
    }

    def "Cardbox_C2" (
        prepend payload = @https://omniverse-content-production.s3-us-west-2.amazonaws.com/Assets/ArchVis/Industrial/Containers/Cardboard/Cardbox_C2.usd@
    )
    {
        quatf xformOp:orient = (1, 0, 0, 0)
        float3 xformOp:scale = (1, 1, 1)
        double3 xformOp:scale:unitsResolve = (0.009999999776482582, 0.009999999776482582, 0.009999999776482582)
        double3 xformOp:translate = (-0.5524593645578103, 10.460040092468262, 3.8526708254842967)
        uniform token[] xformOpOrder = ["xformOp:translate", "xformOp:orient", "xformOp:scale", "xformOp:scale:unitsResolve"]
    }

    def "Cardbox_A2_01" (
        prepend payload = @https://omniverse-content-production.s3-us-west-2.amazonaws.com/Assets/ArchVis/Industrial/Containers/Cardboard/Cardbox_A2.usd@
    )
    {
        quatf xformOp:orient = (1, 0, 0, 0)
        float3 xformOp:scale = (1, 1, 1)
        double3 xformOp:scale:unitsResolve = (0.009999999776482582, 0.009999999776482582, 0.009999999776482582)
        double3 xformOp:translate = (-0.4499628245830536, 11.942929320011002, 3.3474996089935303)
        uniform token[] xformOpOrder = ["xformOp:translate", "xformOp:orient", "xformOp:scale", "xformOp:scale:unitsResolve"]
    }

    def "Cardbox_A1" (
        prepend payload = @https://omniverse-content-production.s3-us-west-2.amazonaws.com/Assets/ArchVis/Industrial/Containers/Cardboard/Cardbox_A1.usd@
    )
    {
        quatf xformOp:orient = (1, 0, 0, 0)
        float3 xformOp:scale = (1, 1, 1)
        double3 xformOp:scale:unitsResolve = (0.009999999776482582, 0.009999999776482582, 0.009999999776482582)
        double3 xformOp:translate = (-0.4497645199298858, 12.466807734040003, 3.3474996089935303)
        uniform token[] xformOpOrder = ["xformOp:translate", "xformOp:orient", "xformOp:scale", "xformOp:scale:unitsResolve"]
    }

    def "Cardbox_D1" (
        prepend payload = @https://omniverse-content-production.s3-us-west-2.amazonaws.com/Assets/ArchVis/Industrial/Containers/Cardboard/Cardbox_D1.usd@
    )
    {
        quatf xformOp:orient = (1, 0, 0, 0)
        float3 xformOp:scale = (1, 1, 1)
        double3 xformOp:scale:unitsResolve = (0.009999999776482582, 0.009999999776482582, 0.009999999776482582)
        double3 xformOp:translate = (-0.7995023727416992, 11.838268280029297, 3.7739384174346924)
        uniform token[] xformOpOrder = ["xformOp:translate", "xformOp:orient", "xformOp:scale", "xformOp:scale:unitsResolve"]

        over "Cardbox_D1"
        {
            quatf xformOp:orient = (1, 0, 0, 0)
            float3 xformOp:scale = (1, 1, 1)
            double3 xformOp:translate = (21.40309711300811, 0, 10.159031050197768)
            uniform token[] xformOpOrder = ["xformOp:translate", "xformOp:orient", "xformOp:scale"]
        }
    }

    def "Cardbox_C1" (
        prepend payload = @https://omniverse-content-production.s3-us-west-2.amazonaws.com/Assets/ArchVis/Industrial/Containers/Cardboard/Cardbox_C1.usd@
    )
    {
        quatf xformOp:orient = (1, 0, 0, 0)
        float3 xformOp:scale = (1, 1, 1)
        double3 xformOp:scale:unitsResolve = (0.009999999776482582, 0.009999999776482582, 0.009999999776482582)
        double3 xformOp:translate = (-0.8359256982803345, 11.349889755249023, 3.8729318192527153)
        uniform token[] xformOpOrder = ["xformOp:translate", "xformOp:orient", "xformOp:scale", "xformOp:scale:unitsResolve"]

        over "Cardbox_C1"
        {
            quatf xformOp:orient = (1, 0, 0, 0)
            float3 xformOp:scale = (1, 1, 1)
            double3 xformOp:translate = (21.74154200889565, 0, 0)
            uniform token[] xformOpOrder = ["xformOp:translate", "xformOp:orient", "xformOp:scale"]
        }
    }

    def "CubeBox_A06_42cm_PR_NVD_01" (
        prepend payload = @https://omniverse-content-production.s3-us-west-2.amazonaws.com/Assets/DigitalTwin/Assets/Warehouse/Shipping/Cardboard_Boxes/Cube_A/CubeBox_A06_42cm_PR_NVD_01.usd@
    )
    {
        quatf xformOp:orient = (1, 0, 0, 0)
        float3 xformOp:scale = (1, 1, 1)
        double3 xformOp:scale:unitsResolve = (0.01, 0.01, 0.01)
        double3 xformOp:translate = (-5.39148640940856, 20.094789505004876, 1.9595904537161513)
        uniform token[] xformOpOrder = ["xformOp:translate", "xformOp:orient", "xformOp:scale", "xformOp:scale:unitsResolve"]
    }

    def "CubeBox_A06_42cm_PR_NVD_02" (
        prepend payload = @https://omniverse-content-production.s3-us-west-2.amazonaws.com/Assets/DigitalTwin/Assets/Warehouse/Shipping/Cardboard_Boxes/Cube_A/CubeBox_A06_42cm_PR_NVD_01.usd@
    )
    {
        quatf xformOp:orient = (1, 0, 0, 0)
        float3 xformOp:scale = (1, 1, 1)
        double3 xformOp:scale:unitsResolve = (0.01, 0.01, 0.01)
        double3 xformOp:translate = (-5.797391414642332, 19.650568218611237, 1.9452327489852905)
        uniform token[] xformOpOrder = ["xformOp:translate", "xformOp:orient", "xformOp:scale", "xformOp:scale:unitsResolve"]
    }

    def "CubeBox_A06_42cm_PR_NVD_03" (
        prepend payload = @https://omniverse-content-production.s3-us-west-2.amazonaws.com/Assets/DigitalTwin/Assets/Warehouse/Shipping/Cardboard_Boxes/Cube_A/CubeBox_A06_42cm_PR_NVD_01.usd@
    )
    {
        quatf xformOp:orient = (1, 0, 0, 0)
        float3 xformOp:scale = (1, 1, 1)
        double3 xformOp:scale:unitsResolve = (0.01, 0.01, 0.01)
        double3 xformOp:translate = (-5.801619529724121, 19.19592213848037, 1.9526128768920883)
        uniform token[] xformOpOrder = ["xformOp:translate", "xformOp:orient", "xformOp:scale", "xformOp:scale:unitsResolve"]
    }

    def "CubeBox_A06_42cm_PR_NVD_04" (
        prepend payload = @https://omniverse-content-production.s3-us-west-2.amazonaws.com/Assets/DigitalTwin/Assets/Warehouse/Shipping/Cardboard_Boxes/Cube_A/CubeBox_A06_42cm_PR_NVD_01.usd@
    )
    {
        quatf xformOp:orient = (1, 0, 0, 0)
        float3 xformOp:scale = (1, 1, 1)
        double3 xformOp:scale:unitsResolve = (0.01, 0.01, 0.01)
        double3 xformOp:translate = (-5.429795259489651, 18.65789668657112, 1.9551737700070506)
        uniform token[] xformOpOrder = ["xformOp:translate", "xformOp:orient", "xformOp:scale", "xformOp:scale:unitsResolve"]
    }

    def "CubeBox_A06_42cm_PR_NVD_05" (
        prepend payload = @https://omniverse-content-production.s3-us-west-2.amazonaws.com/Assets/DigitalTwin/Assets/Warehouse/Shipping/Cardboard_Boxes/Cube_A/CubeBox_A06_42cm_PR_NVD_01.usd@
    )
    {
        quatf xformOp:orient = (1, 0, 0, 0)
        float3 xformOp:scale = (1, 1, 1)
        double3 xformOp:scale:unitsResolve = (0.01, 0.01, 0.01)
        double3 xformOp:translate = (-5.966701507568359, 18.440408445771986, 1.9562499523162842)
        uniform token[] xformOpOrder = ["xformOp:translate", "xformOp:orient", "xformOp:scale", "xformOp:scale:unitsResolve"]
    }

    def "CubeBox_A06_42cm_PR_NVD_06" (
        prepend payload = @https://omniverse-content-production.s3-us-west-2.amazonaws.com/Assets/DigitalTwin/Assets/Warehouse/Shipping/Cardboard_Boxes/Cube_A/CubeBox_A06_42cm_PR_NVD_01.usd@
    )
    {
        quatf xformOp:orient = (1, 0, 0, 0)
        float3 xformOp:scale = (1, 1, 1)
        double3 xformOp:scale:unitsResolve = (0.01, 0.01, 0.01)
        double3 xformOp:translate = (-5.3312462627983095, 18.042526245117188, 1.959964478243766)
        uniform token[] xformOpOrder = ["xformOp:translate", "xformOp:orient", "xformOp:scale", "xformOp:scale:unitsResolve"]
    }

    def "CubeBox_A06_42cm_PR_NVD_07" (
        prepend payload = @https://omniverse-content-production.s3-us-west-2.amazonaws.com/Assets/DigitalTwin/Assets/Warehouse/Shipping/Cardboard_Boxes/Cube_A/CubeBox_A06_42cm_PR_NVD_01.usd@
    )
    {
        quatf xformOp:orient = (1, 0, 0, 0)
        float3 xformOp:scale = (1, 1, 1)
        double3 xformOp:scale:unitsResolve = (0.01, 0.01, 0.01)
        double3 xformOp:translate = (-5.959568977355957, 17.67724069896651, 1.9562499523162842)
        uniform token[] xformOpOrder = ["xformOp:translate", "xformOp:orient", "xformOp:scale", "xformOp:scale:unitsResolve"]
    }

    def "RackLarge_A9" (
        prepend payload = @https://omniverse-content-production.s3-us-west-2.amazonaws.com/Assets/ArchVis/Industrial/Racks/RackLarge_A9.usd@
    )
    {
        float3 xformOp:rotateXYZ = (0, 0, 0)
        float3 xformOp:scale = (0.6, 1.2, 1)
        double3 xformOp:scale:unitsResolve = (0.009999999776482582, 0.009999999776482582, 0.009999999776482582)
        double3 xformOp:translate = (-20.367040727145053, 6.3827812260893495, -1.6889688936316818e-7)
        uniform token[] xformOpOrder = ["xformOp:translate", "xformOp:rotateXYZ", "xformOp:scale", "xformOp:scale:unitsResolve"]
    }

    def "RackLarge_A8" (
        prepend payload = @https://omniverse-content-production.s3-us-west-2.amazonaws.com/Assets/ArchVis/Industrial/Racks/RackLarge_A8.usd@
    )
    {
        quatf xformOp:orient = (1, 0, 0, 0)
        float3 xformOp:scale = (0.6, 1.2, 1)
        double3 xformOp:scale:unitsResolve = (0.009999999776482582, 0.009999999776482582, 0.009999999776482582)
        double3 xformOp:translate = (-10.50019359588623, 6.399376240846523, -6.431861265809858e-7)
        uniform token[] xformOpOrder = ["xformOp:translate", "xformOp:orient", "xformOp:scale", "xformOp:scale:unitsResolve"]
    }

    def "RackLarge_A9_01" (
        prepend payload = @https://omniverse-content-production.s3-us-west-2.amazonaws.com/Assets/ArchVis/Industrial/Racks/RackLarge_A9.usd@
    )
    {
        float3 xformOp:rotateXYZ = (0, 0, 0)
        float3 xformOp:scale = (0.6, 1.2, 1)
        double3 xformOp:scale:unitsResolve = (0.009999999776482582, 0.009999999776482582, 0.009999999776482582)
        double3 xformOp:translate = (-0.6226317820414827, 6.247883614578405, 4.600944691901532e-7)
        uniform token[] xformOpOrder = ["xformOp:translate", "xformOp:rotateXYZ", "xformOp:scale", "xformOp:scale:unitsResolve"]
    }

    def "RackLong_A9" (
        prepend payload = @https://omniverse-content-production.s3-us-west-2.amazonaws.com/Assets/ArchVis/Industrial/Racks/RackLong_A9.usd@
    )
    {
        quatf xformOp:orient = (1, 0, 0, 0)
        float3 xformOp:scale = (0.8, 1, 0.8)
        double3 xformOp:scale:unitsResolve = (0.009999999776482582, 0.009999999776482582, 0.009999999776482582)
        double3 xformOp:translate = (-16.470472243649027, 10.956383961955737, -1.0016141516189235e-7)
        uniform token[] xformOpOrder = ["xformOp:translate", "xformOp:orient", "xformOp:scale", "xformOp:scale:unitsResolve"]
    }

    def "RackLong_A9_01" (
        prepend payload = @https://omniverse-content-production.s3-us-west-2.amazonaws.com/Assets/ArchVis/Industrial/Racks/RackLong_A9.usd@
    )
    {
        quatf xformOp:orient = (1, 0, 0, 0)
        float3 xformOp:scale = (0.8, 1, 0.8)
        double3 xformOp:scale:unitsResolve = (0.009999999776482582, 0.009999999776482582, 0.009999999776482582)
        double3 xformOp:translate = (-16.470472243649027, 14.966683894364962, -1.0016141516189235e-7)
        uniform token[] xformOpOrder = ["xformOp:translate", "xformOp:orient", "xformOp:scale", "xformOp:scale:unitsResolve"]
    }

    def "RackLong_A9_02" (
        prepend payload = @https://omniverse-content-production.s3-us-west-2.amazonaws.com/Assets/ArchVis/Industrial/Racks/RackLong_A9.usd@
    )
    {
        quatf xformOp:orient = (1, 0, 0, 0)
        float3 xformOp:scale = (0.8, 1, 0.8)
        double3 xformOp:scale:unitsResolve = (0.009999999776482582, 0.009999999776482582, 0.009999999776482582)
        double3 xformOp:translate = (-16.470472243649027, 18.97588130084148, -1.0016141516189235e-7)
        uniform token[] xformOpOrder = ["xformOp:translate", "xformOp:orient", "xformOp:scale", "xformOp:scale:unitsResolve"]
    }

    def "RackLong_A9_03" (
        prepend payload = @https://omniverse-content-production.s3-us-west-2.amazonaws.com/Assets/ArchVis/Industrial/Racks/RackLong_A9.usd@
    )
    {
        quatf xformOp:orient = (1, 0, 0, 0)
        float3 xformOp:scale = (0.8, 0.9, 0.8)
        double3 xformOp:scale:unitsResolve = (0.009999999776482582, 0.009999999776482582, 0.009999999776482582)
        double3 xformOp:translate = (-16.470472243649024, 22.793801026410765, -1.0016141516189231e-7)
        uniform token[] xformOpOrder = ["xformOp:translate", "xformOp:orient", "xformOp:scale", "xformOp:scale:unitsResolve"]
    }

    def "Cardbox_B3_01" (
        prepend payload = @https://omniverse-content-production.s3-us-west-2.amazonaws.com/Assets/ArchVis/Industrial/Containers/Cardboard/Cardbox_B3.usd@
    )
    {
        quatf xformOp:orient = (1, 0, 0, 0)
        float3 xformOp:scale = (1, 1, 1)
        double3 xformOp:scale:unitsResolve = (0.009999999776482582, 0.009999999776482582, 0.009999999776482582)
        double3 xformOp:translate = (-20.3737122091748, 16.412551879882812, 3.258607864379883)
        uniform token[] xformOpOrder = ["xformOp:translate", "xformOp:orient", "xformOp:scale", "xformOp:scale:unitsResolve"]
    }

    def "Cardbox_B3_02" (
        prepend payload = @https://omniverse-content-production.s3-us-west-2.amazonaws.com/Assets/ArchVis/Industrial/Containers/Cardboard/Cardbox_B3.usd@
    )
    {
        quatf xformOp:orient = (1, 0, 0, 0)
        float3 xformOp:scale = (1, 1, 1)
        double3 xformOp:scale:unitsResolve = (0.009999999776482582, 0.009999999776482582, 0.009999999776482582)
        double3 xformOp:translate = (-20.344930752428546, 15.7703903029986, 3.259999513626098)
        uniform token[] xformOpOrder = ["xformOp:translate", "xformOp:orient", "xformOp:scale", "xformOp:scale:unitsResolve"]
    }

    def "Cardbox_B3_03" (
        prepend payload = @https://omniverse-content-production.s3-us-west-2.amazonaws.com/Assets/ArchVis/Industrial/Containers/Cardboard/Cardbox_B3.usd@
    )
    {
        quatf xformOp:orient = (1, 0, 0, 0)
        float3 xformOp:scale = (1, 1, 1)
        double3 xformOp:scale:unitsResolve = (0.009999999776482582, 0.009999999776482582, 0.009999999776482582)
        double3 xformOp:translate = (-20.509909657357866, 15.151584656288174, 3.268217810069737)
        uniform token[] xformOpOrder = ["xformOp:translate", "xformOp:orient", "xformOp:scale", "xformOp:scale:unitsResolve"]
    }

    def "Cardbox_B3_04" (
        prepend payload = @https://omniverse-content-production.s3-us-west-2.amazonaws.com/Assets/ArchVis/Industrial/Containers/Cardboard/Cardbox_B3.usd@
    )
    {
        quatf xformOp:orient = (1, 0, 0, 0)
        float3 xformOp:scale = (1, 1, 1)
        double3 xformOp:scale:unitsResolve = (0.009999999776482582, 0.009999999776482582, 0.009999999776482582)
        double3 xformOp:translate = (-10.702296627838974, 9.746855735778809, 3.2051932034032884)
        uniform token[] xformOpOrder = ["xformOp:translate", "xformOp:orient", "xformOp:scale", "xformOp:scale:unitsResolve"]
    }

    def "Cardbox_B3_05" (
        prepend payload = @https://omniverse-content-production.s3-us-west-2.amazonaws.com/Assets/ArchVis/Industrial/Containers/Cardboard/Cardbox_B3.usd@
    )
    {
        quatf xformOp:orient = (1, 0, 0, 0)
        float3 xformOp:scale = (1, 1, 1)
        double3 xformOp:scale:unitsResolve = (0.009999999776482582, 0.009999999776482582, 0.009999999776482582)
        double3 xformOp:translate = (-10.706872940063477, 11.220574434800389, 3.1987500190734863)
        uniform token[] xformOpOrder = ["xformOp:translate", "xformOp:orient", "xformOp:scale", "xformOp:scale:unitsResolve"]
    }

    def "Cardbox_B3_06" (
        prepend payload = @https://omniverse-content-production.s3-us-west-2.amazonaws.com/Assets/ArchVis/Industrial/Containers/Cardboard/Cardbox_B3.usd@
    )
    {
        quatf xformOp:orient = (1, 0, 0, 0)
        float3 xformOp:scale = (1, 1, 1)
        double3 xformOp:scale:unitsResolve = (0.009999999776482582, 0.009999999776482582, 0.009999999776482582)
        double3 xformOp:translate = (-10.56316340102785, 11.896395683288574, 3.1987500190734863)
        uniform token[] xformOpOrder = ["xformOp:translate", "xformOp:orient", "xformOp:scale", "xformOp:scale:unitsResolve"]
    }

    def "Cardbox_B3_07" (
        prepend payload = @https://omniverse-content-production.s3-us-west-2.amazonaws.com/Assets/ArchVis/Industrial/Containers/Cardboard/Cardbox_B3.usd@
    )
    {
        quatf xformOp:orient = (1, 0, 0, 0)
        float3 xformOp:scale = (1, 1, 1)
        double3 xformOp:scale:unitsResolve = (0.009999999776482582, 0.009999999776482582, 0.009999999776482582)
        double3 xformOp:translate = (-5.715972110393659, 24.268848419189453, 3.4484150409698486)
        uniform token[] xformOpOrder = ["xformOp:translate", "xformOp:orient", "xformOp:scale", "xformOp:scale:unitsResolve"]
    }

    def "Cardbox_B3_08" (
        prepend payload = @https://omniverse-content-production.s3-us-west-2.amazonaws.com/Assets/ArchVis/Industrial/Containers/Cardboard/Cardbox_B3.usd@
    )
    {
        quatf xformOp:orient = (1, 0, 0, 0)
        float3 xformOp:scale = (1, 1, 1)
        double3 xformOp:scale:unitsResolve = (0.009999999776482582, 0.009999999776482582, 0.009999999776482582)
        double3 xformOp:translate = (-5.664312329312948, 23.71477414650873, 3.4487497806549072)
        uniform token[] xformOpOrder = ["xformOp:translate", "xformOp:orient", "xformOp:scale", "xformOp:scale:unitsResolve"]
    }

    def "Cardbox_B3_09" (
        prepend payload = @https://omniverse-content-production.s3-us-west-2.amazonaws.com/Assets/ArchVis/Industrial/Containers/Cardboard/Cardbox_B3.usd@
    )
    {
        quatf xformOp:orient = (1, 0, 0, 0)
        float3 xformOp:scale = (1, 1, 1)
        double3 xformOp:scale:unitsResolve = (0.009999999776482582, 0.009999999776482582, 0.009999999776482582)
        double3 xformOp:translate = (-5.757407188415527, 23.104470832155695, 3.448750019073485)
        uniform token[] xformOpOrder = ["xformOp:translate", "xformOp:orient", "xformOp:scale", "xformOp:scale:unitsResolve"]
    }

    def "Cardbox_B3_10" (
        prepend payload = @https://omniverse-content-production.s3-us-west-2.amazonaws.com/Assets/ArchVis/Industrial/Containers/Cardboard/Cardbox_B3.usd@
    )
    {
        quatf xformOp:orient = (1, 0, 0, 0)
        float3 xformOp:scale = (1, 1, 1)
        double3 xformOp:scale:unitsResolve = (0.009999999776482582, 0.009999999776482582, 0.009999999776482582)
        double3 xformOp:translate = (-5.4320783615112305, 22.571453094482422, 3.448592185974121)
        uniform token[] xformOpOrder = ["xformOp:translate", "xformOp:orient", "xformOp:scale", "xformOp:scale:unitsResolve"]
    }

    def "Cardbox_B3_11" (
        prepend payload = @https://omniverse-content-production.s3-us-west-2.amazonaws.com/Assets/ArchVis/Industrial/Containers/Cardboard/Cardbox_B3.usd@
    )
    {
        quatf xformOp:orient = (1, 0, 0, 0)
        float3 xformOp:scale = (1, 1, 1)
        double3 xformOp:scale:unitsResolve = (0.009999999776482582, 0.009999999776482582, 0.009999999776482582)
        double3 xformOp:translate = (-5.762688636779785, 22.018087540990482, 3.4487497806549072)
        uniform token[] xformOpOrder = ["xformOp:translate", "xformOp:orient", "xformOp:scale", "xformOp:scale:unitsResolve"]
    }

    def "Cardbox_B3_12" (
        prepend payload = @https://omniverse-content-production.s3-us-west-2.amazonaws.com/Assets/ArchVis/Industrial/Containers/Cardboard/Cardbox_B3.usd@
    )
    {
        quatf xformOp:orient = (1, 0, 0, 0)
        float3 xformOp:scale = (1, 1, 1)
        double3 xformOp:scale:unitsResolve = (0.009999999776482582, 0.009999999776482582, 0.009999999776482582)
        double3 xformOp:translate = (-5.484039433873864, 21.42887142608607, 3.448750019073485)
        uniform token[] xformOpOrder = ["xformOp:translate", "xformOp:orient", "xformOp:scale", "xformOp:scale:unitsResolve"]
    }

    def "Cardbox_B3_13" (
        prepend payload = @https://omniverse-content-production.s3-us-west-2.amazonaws.com/Assets/ArchVis/Industrial/Containers/Cardboard/Cardbox_B3.usd@
    )
    {
        quatf xformOp:orient = (1, 0, 0, 0)
        float3 xformOp:scale = (1, 1, 1)
        double3 xformOp:scale:unitsResolve = (0.009999999776482582, 0.009999999776482582, 0.009999999776482582)
        double3 xformOp:translate = (-10.409384727478027, 15.828778266906738, 2.010000228881836)
        uniform token[] xformOpOrder = ["xformOp:translate", "xformOp:orient", "xformOp:scale", "xformOp:scale:unitsResolve"]
    }

    def "Cardbox_B3_14" (
        prepend payload = @https://omniverse-content-production.s3-us-west-2.amazonaws.com/Assets/ArchVis/Industrial/Containers/Cardboard/Cardbox_B3.usd@
    )
    {
        quatf xformOp:orient = (1, 0, 0, 0)
        float3 xformOp:scale = (1, 1, 1)
        double3 xformOp:scale:unitsResolve = (0.009999999776482582, 0.009999999776482582, 0.009999999776482582)
        double3 xformOp:translate = (-10.93650722503662, 14.472682952880858, 1.43356110629124)
        uniform token[] xformOpOrder = ["xformOp:translate", "xformOp:orient", "xformOp:scale", "xformOp:scale:unitsResolve"]

        over "Cardbox_B3"
        {
            quatf xformOp:orient = (1, 0, 0, 0)
            float3 xformOp:scale = (1, 1, 1)
            double3 xformOp:translate = (42.88952808521026, 18.66395374558647, 8.11921829488847)
            uniform token[] xformOpOrder = ["xformOp:translate", "xformOp:orient", "xformOp:scale"]
        }
    }

    over "full_warehouse"
    {
        over "Box_19413"
        {
            over "SM_CardBoxA_02"
            {
                quatf xformOp:orient = (1, 0, 0, 0)
                float3 xformOp:scale = (0.01, 0.01, 0.01)
                double3 xformOp:translate = (0, 0, 0.523172419901119)
                uniform token[] xformOpOrder = ["xformOp:translate", "xformOp:orient", "xformOp:scale"]
            }
        }

        over "Box_19405"
        {
            over "SM_CardBoxB_02"
            {
                quatf xformOp:orient = (1, 0, 0, 0)
                float3 xformOp:scale = (0.01, 0.01, 0.01)
                double3 xformOp:translate = (0, 0, 0.5291542222913037)
                uniform token[] xformOpOrder = ["xformOp:translate", "xformOp:orient", "xformOp:scale"]
            }
        }
    }

    def "Cardbox_B3_15" (
        prepend payload = @https://omniverse-content-production.s3-us-west-2.amazonaws.com/Assets/ArchVis/Industrial/Containers/Cardboard/Cardbox_B3.usd@
    )
    {
        quatf xformOp:orient = (1, 0, 0, 0)
        float3 xformOp:scale = (1, 1, 1)
        double3 xformOp:scale:unitsResolve = (0.009999999776482582, 0.009999999776482582, 0.009999999776482582)
        double3 xformOp:translate = (-10.401328086853027, 16.377962112426758, 1.5274975813402467)
        uniform token[] xformOpOrder = ["xformOp:translate", "xformOp:orient", "xformOp:scale", "xformOp:scale:unitsResolve"]
    }
}

over "Render"
{
    over "OmniverseKit"
    {
        over "HydraTextures"
        {
            over "omni_kit_widget_viewport_ViewportTexture_0"
            {
                rel camera = </OmniverseKit_Persp>
                rel orderedVars = </Render/Vars/LdrColor>
                custom bool overrideClipRange = 0
                uniform int2 resolution = (1280, 720)
            }
        }
    }
}

